<svg xmlns="http://www.w3.org/2000/svg" viewBox="0 0 176.39 174.89"><defs><style>.cls-1{fill:#065366;}.cls-2{opacity:0;}.cls-3{fill:#f8be77;}.cls-4{fill:#7fd2ea;}.cls-5{fill:#f9a972;}</style></defs><title>syirkah-logo-box</title><g id="Layer_2" data-name="Layer 2"><g id="Layer_1-2" data-name="Layer 1"><rect class="cls-1" width="176.39" height="174.89" rx="12"/><g class="cls-2"><path class="cls-3" d="M12.89,159.21c.91-3.16,2.37-6.83,4.06-11.08,1.77-4.46,3.78-9.5,5.38-14.63l1.28-4.08,4.18-.92c32.7-7.17,62.38-14.33,72.34-16.76,1.19-2.79,3-7,4.55-10.95-1.78-1.39-3.5-2.69-5.71-4.33L94.72,93.3l1.64-5c.3-.91.6-2,.88-3.11L95,82.87l-2.66-2.64c-3,0-5.81,0-8.8.1-2.78,0-5.58.08-8.47.09l-9.67,0,2.52-9.33c.32-1.18.7-2.32,1.07-3.43s.63-1.86.84-2.64L71,60.64l4.49-.89c7.79-1.55,15.57-3,22.43-4.34l8.16-1.56,3.31-.64L112,55.3c7,5.55,15.72,12,24.12,18.28,3.38,2.52,6.7,5,9.8,7.33l4.2,3.15-1.61,5c-3.67,11.43-17.14,49.07-17.71,50.67l-1.32,3.68-3.78,1c-.48.12-48.34,12.4-104.22,24.07l-12,2.5Z"/><path class="cls-3" d="M64.38,119.59c-7-5.55-15.71-12-24.1-18.26-3.39-2.53-6.71-5-9.82-7.35l-4.19-3.15,1.6-5C31.54,74.41,45,36.76,45.58,35.16l1.32-3.68,3.79-1C51.16,30.38,99,18.1,154.91,6.43l12-2.5L163.5,15.68c-.9,3.16-2.37,6.83-4.06,11.09-1.77,4.45-3.78,9.5-5.38,14.62l-1.28,4.08-4.18.92c-32.69,7.17-62.38,14.34-72.33,16.76-1.19,2.8-3,7-4.56,10.95,1.79,1.39,3.5,2.69,5.71,4.33l4.25,3.16-1.64,5c-.29.91-.59,2-.88,3.12.75.73,1.52,1.5,2.3,2.28s1.78,1.77,2.66,2.63c3,0,5.8,0,8.8-.1,2.78,0,5.57-.08,8.47-.09l9.66,0-2.52,9.32c-.32,1.19-.7,2.33-1.07,3.44-.32,1-.62,1.85-.83,2.63l-1.19,4.42-4.5.9c-7.8,1.55-15.59,3-22.46,4.34L70.34,121l-3.31.64Z"/></g><path class="cls-4" d="M34.89,88.09c3.68-11.44,17.64-50.44,17.64-50.44s47.52-12.23,103.88-24c-1.72,6-6.22,15.41-9.39,25.54C106.46,48.08,71,56.86,71,56.86S65.58,69.32,62.83,76.5c4,3.15,6.34,5,10.19,7.85-.73,2.25-1.39,5.05-2,7.85,2.93,2.54,6.78,6.72,10.19,9.82,7,.06,13.31-.15,20.23-.17-.52,1.94-1.37,4.09-1.9,6.06C88.34,110.13,77,112.25,69,113.8,58.94,105.92,45.65,96.18,34.89,88.09Z"/><path class="cls-4" d="M141.5,86.8c-3.67,11.45-17.63,50.45-17.63,50.45S76.34,149.48,20,161.25c1.72-6,6.22-15.41,9.39-25.55C69.94,126.81,105.43,118,105.43,118s5.38-12.46,8.13-19.63c-4-3.16-6.34-5-10.19-7.86.74-2.25,1.39-5.05,2-7.85-2.93-2.53-6.77-6.72-10.18-9.82-7-.05-13.31.15-20.24.18.53-2,1.38-4.1,1.91-6.07,11.16-2.22,22.46-4.33,30.55-5.89C117.45,69,130.75,78.71,141.5,86.8Z"/><ellipse class="cls-5" cx="88.26" cy="87.43" rx="10.35" ry="9.91" transform="translate(-10.9 12.59) rotate(-7.69)"/></g></g></svg>