<svg xmlns="http://www.w3.org/2000/svg" viewBox="0 0 190.97 190.97"><defs><style>.cls-1{fill:#065366;}.cls-2{opacity:0;}.cls-3{fill:#f8be77;}.cls-4{fill:#7fd2ea;}.cls-5{fill:#f9a972;}</style></defs><title>syirkah-logo-circle</title><g id="Layer_2" data-name="Layer 2"><g id="Layer_1-2" data-name="Layer 1"><circle class="cls-1" cx="95.48" cy="95.48" r="95.48"/><g class="cls-2"><path class="cls-3" d="M30.65,157.27c.78-2.72,2-5.89,3.5-9.55,1.52-3.83,3.25-8.17,4.63-12.58l1.1-3.52,3.6-.79c28.15-6.17,53.71-12.34,62.27-14.43,1-2.41,2.56-6.06,3.93-9.43-1.54-1.19-3-2.31-4.92-3.73l-3.66-2.72,1.41-4.33c.26-.79.52-1.72.76-2.69l-2-2c-.76-.76-1.53-1.53-2.28-2.26-2.56,0-5,0-7.58.08-2.39,0-4.8.07-7.29.08l-8.32,0,2.17-8c.27-1,.6-2,.92-2.94s.54-1.61.72-2.27l1-3.82,3.87-.76c6.71-1.33,13.4-2.61,19.31-3.74l7-1.34,2.85-.55,2.28,1.8c6.06,4.78,13.53,10.35,20.76,15.73,2.91,2.18,5.77,4.31,8.44,6.32l3.61,2.71-1.38,4.3c-3.16,9.84-14.76,42.25-15.25,43.63L131,143.67l-3.26.84c-.41.1-41.62,10.68-89.73,20.72l-10.29,2.15Z"/><path class="cls-3" d="M75,123.16c-6.06-4.78-13.53-10.34-20.75-15.73-2.92-2.17-5.78-4.3-8.45-6.32L42.17,98.4l1.38-4.3c3.16-9.84,14.76-42.25,15.25-43.63l1.13-3.17,3.26-.84c.41-.1,41.62-10.68,89.73-20.72l10.29-2.16L160.32,33.7c-.79,2.72-2,5.88-3.5,9.54-1.52,3.84-3.25,8.18-4.63,12.59l-1.1,3.52-3.6.79c-28.15,6.17-53.71,12.34-62.28,14.43-1,2.4-2.55,6.05-3.92,9.42,1.54,1.2,3,2.32,4.91,3.73l3.66,2.72-1.41,4.34c-.25.79-.51,1.72-.75,2.68l2,2c.75.76,1.53,1.53,2.28,2.26,2.56,0,5,0,7.58-.08,2.39,0,4.8-.07,7.29-.08l8.32,0-2.17,8c-.27,1-.6,2-.92,3s-.54,1.6-.72,2.26l-1,3.81-3.87.77c-6.72,1.34-13.43,2.61-19.34,3.74l-7,1.34-2.85.55Z"/></g><path class="cls-4" d="M49.59,96c3.17-9.85,15.18-43.43,15.18-43.43S105.69,42.08,154.21,32c-1.48,5.17-5.35,13.26-8.08,22C111.21,61.6,80.65,69.15,80.65,69.15s-4.64,10.73-7,16.91c3.43,2.71,5.46,4.3,8.78,6.76-.63,1.94-1.2,4.35-1.76,6.76,2.53,2.18,5.84,5.78,8.77,8.45,6,0,11.46-.13,17.42-.15-.45,1.68-1.18,3.53-1.64,5.22-9.61,1.91-19.34,3.73-26.3,5.08C70.3,111.39,58.85,103,49.59,96Z"/><path class="cls-4" d="M141.38,94.93c-3.17,9.85-15.19,43.43-15.19,43.43S85.28,148.89,36.76,159c1.48-5.17,5.35-13.27,8.08-22,34.92-7.66,65.48-15.21,65.48-15.21s4.63-10.73,7-16.91c-3.42-2.71-5.46-4.3-8.77-6.76.63-1.94,1.2-4.35,1.75-6.76-2.52-2.18-5.83-5.78-8.76-8.46-6,0-11.46.14-17.43.16.46-1.68,1.19-3.53,1.65-5.23,9.6-1.9,19.34-3.73,26.3-5.07C120.67,79.58,132.12,88,141.38,94.93Z"/><ellipse class="cls-5" cx="95.54" cy="95.47" rx="8.91" ry="8.53" transform="translate(-11.91 13.64) rotate(-7.69)"/></g></g></svg>