<svg xmlns="http://www.w3.org/2000/svg" viewBox="0 0 157.34 167.03"><defs><style>.cls-1{opacity:0;}.cls-2{fill:#f8be77;}.cls-3{fill:#7fd2ea;}.cls-4{fill:#f9a972;}</style></defs><title>syirkah-logo</title><g id="Layer_2" data-name="Layer 2"><g id="Layer_1-2" data-name="Layer 1"><g class="cls-1"><path class="cls-2" d="M3.36,155.28c.91-3.16,2.37-6.83,4.06-11.09,1.78-4.45,3.78-9.49,5.39-14.62l1.27-4.08,4.18-.92C51,117.4,80.65,110.23,90.6,107.81c1.19-2.8,3-7,4.56-11-1.79-1.39-3.5-2.69-5.71-4.33L85.2,89.37l1.64-5c.29-.91.59-2,.88-3.11l-2.3-2.28c-.88-.89-1.78-1.78-2.66-2.64-3,0-5.8,0-8.8.1-2.78,0-5.57.08-8.47.09l-9.66,0,2.52-9.32c.31-1.18.7-2.33,1.07-3.43s.62-1.86.83-2.64l1.19-4.42,4.49-.89c7.8-1.55,15.57-3,22.43-4.34l8.17-1.56,3.31-.64,2.65,2.09c7,5.55,15.72,12,24.11,18.27,3.39,2.53,6.7,5,9.81,7.34l4.19,3.15-1.6,5c-3.67,11.42-17.14,49.07-17.72,50.67L120,139.48l-3.79,1c-.48.12-48.34,12.4-104.22,24.07L0,167Z"/><path class="cls-2" d="M54.85,115.66c-7-5.55-15.71-12-24.09-18.26-3.4-2.53-6.72-5-9.83-7.35L16.74,86.9l1.6-5C22,70.48,35.49,32.83,36.06,31.23l1.31-3.68,3.79-1c.48-.12,48.34-12.4,104.22-24.07l12-2.5L154,11.75c-.91,3.16-2.37,6.83-4.06,11.09-1.78,4.45-3.78,9.49-5.39,14.62l-1.27,4.08-4.18.92c-32.7,7.17-62.39,14.34-72.34,16.76-1.19,2.8-3,7-4.56,11,1.79,1.39,3.51,2.69,5.71,4.33l4.25,3.16-1.63,5c-.3.91-.6,2-.88,3.12.74.73,1.51,1.49,2.29,2.28s1.78,1.77,2.66,2.63c3,0,5.81,0,8.8-.1,2.78,0,5.57-.08,8.47-.09l9.66,0L99,99.83c-.32,1.18-.71,2.33-1.08,3.43s-.62,1.86-.83,2.64l-1.19,4.42-4.49.89c-7.81,1.55-15.6,3-22.47,4.35l-8.12,1.55-3.32.64Z"/></g><path class="cls-3" d="M25.36,84.16C29,72.72,43,33.71,43,33.71s47.53-12.22,103.89-24c-1.72,6-6.22,15.4-9.39,25.54C96.93,44.15,61.44,52.93,61.44,52.93S56.05,65.39,53.3,72.57c4,3.15,6.34,5,10.19,7.85-.73,2.25-1.39,5-2,7.85,2.93,2.54,6.77,6.72,10.18,9.82,7,0,13.31-.15,20.24-.18-.53,2-1.38,4.1-1.91,6.07-11.16,2.22-22.47,4.34-30.55,5.89C49.42,102,36.12,92.25,25.36,84.16Z"/><path class="cls-3" d="M132,82.87c-3.68,11.44-17.64,50.45-17.64,50.45s-47.52,12.22-103.89,24c1.72-6,6.23-15.4,9.39-25.54C60.41,122.88,95.9,114.1,95.9,114.1s5.39-12.46,8.14-19.64c-4-3.15-6.34-5-10.19-7.85.73-2.25,1.39-5,2-7.85C93,76.22,89.11,72,85.7,68.94c-7,0-13.31.15-20.24.18.53-2,1.38-4.1,1.91-6.07,11.16-2.22,22.47-4.34,30.55-5.89C107.92,65,121.22,74.78,132,82.87Z"/><ellipse class="cls-4" cx="78.73" cy="83.5" rx="10.35" ry="9.91" transform="translate(-10.46 11.28) rotate(-7.69)"/></g></g></svg>