<svg xmlns="http://www.w3.org/2000/svg" viewBox="0 0 236.81 70.7"><defs><style>.cls-1,.cls-2{fill:#7fd2ea;}.cls-1{stroke:#7fd2ea;stroke-miterlimit:10;}</style></defs><title>syirkah-logo-name</title><g id="Layer_2" data-name="Layer 2"><g id="Layer_1-2" data-name="Layer 1"><path class="cls-1" d="M18.67,52.58c-1.71,0-3.58,0-5.62-.14s-4-.21-5.93-.35-3.66-.3-5.23-.48V46.55L7.12,47c1.83.14,3.61.26,5.34.35s3.2.14,4.41.14a43.61,43.61,0,0,0,5.89-.32,9.87,9.87,0,0,0,3.74-1.21A3.76,3.76,0,0,0,28,44.26a7.05,7.05,0,0,0,.59-2.43c.07-.92.1-1.92.1-3,0-1.57,0-2.85-.14-3.82a4.46,4.46,0,0,0-.72-2.25A3.55,3.55,0,0,0,26,31.6,20.47,20.47,0,0,0,22.41,31L10.55,29.69a16.56,16.56,0,0,1-5.33-1.42,7.35,7.35,0,0,1-3-2.56A9.6,9.6,0,0,1,.85,22,31.46,31.46,0,0,1,.5,17.07a17.91,17.91,0,0,1,1.14-7A8.66,8.66,0,0,1,5,6.05a13.59,13.59,0,0,1,5.37-1.84,51.93,51.93,0,0,1,7.25-.45c1.76,0,3.56.05,5.41.14s3.59.22,5.23.38a36.39,36.39,0,0,1,4.06.59V9.79c-1.2-.18-2.59-.34-4.16-.48S25,9.06,23.35,9s-3.2-.1-4.68-.1a44.19,44.19,0,0,0-6.17.35,9.23,9.23,0,0,0-3.75,1.25A3.91,3.91,0,0,0,6.84,13a17.6,17.6,0,0,0-.38,3.91,18.06,18.06,0,0,0,.38,4.2,3,3,0,0,0,1.67,2.08,13.35,13.35,0,0,0,3.85.87l11.58,1.31a30.46,30.46,0,0,1,4.4.66,8.91,8.91,0,0,1,3.3,1.49,6.33,6.33,0,0,1,2.08,3,10,10,0,0,1,.62,2.15,25.46,25.46,0,0,1,.31,2.6c.07.94.11,2,.11,3.15A23.56,23.56,0,0,1,34,45a10.21,10.21,0,0,1-2.15,4.13,8.6,8.6,0,0,1-3.39,2.29,16.62,16.62,0,0,1-4.48,1C22.33,52.51,20.56,52.58,18.67,52.58Z"/><path class="cls-1" d="M59,66.31c-1.34,0-2.74,0-4.2-.1L50.6,66c-1.31-.07-2.48-.18-3.5-.32v-4.5c1.53,0,2.92.1,4.2.17s2.45.12,3.53.14l3,0a25.3,25.3,0,0,0,6.34-.62,6.27,6.27,0,0,0,3.44-2A7.63,7.63,0,0,0,69,55.07a44.48,44.48,0,0,0,.31-5.75V47.24h-.42A6.86,6.86,0,0,1,67,49.8a9.53,9.53,0,0,1-3.6,1.88,21.26,21.26,0,0,1-6,.69,20.3,20.3,0,0,1-6.27-.8,7.13,7.13,0,0,1-3.64-2.49,10,10,0,0,1-1.7-4.27,35.79,35.79,0,0,1-.45-6.1v-22h5.68v20a48,48,0,0,0,.28,5.75,6,6,0,0,0,1.21,3.23,4.67,4.67,0,0,0,2.67,1.42,23.88,23.88,0,0,0,4.51.35,13.55,13.55,0,0,0,5.41-.87,5.64,5.64,0,0,0,2.81-2.53,11,11,0,0,0,1.11-4,51.29,51.29,0,0,0,.24-5.23V16.66h5.62v31a62.14,62.14,0,0,1-.52,8.64A12.56,12.56,0,0,1,72.24,62a9.51,9.51,0,0,1-4.82,3.23A28.18,28.18,0,0,1,59,66.31Z"/><path class="cls-1" d="M86.76,6.67V.5h6V6.67ZM86.9,52V16.66h5.69V52Z"/><path class="cls-1" d="M104.52,52V16.66h5.06l.28,6.79h.41a10.34,10.34,0,0,1,2.57-4.57,8.7,8.7,0,0,1,4-2.19,21.6,21.6,0,0,1,5.2-.59v5.55q-4.78,0-7.35,1.53a7.84,7.84,0,0,0-3.53,4.71,28,28,0,0,0-1,8V52Z"/><path class="cls-1" d="M130,52V.5h5.68V31.71h4.44l12.48-15H159L144.6,33.79,159.16,52h-6.59L140.09,36.56h-4.44V52Z"/><path class="cls-1" d="M176.7,52.58a20,20,0,0,1-6.48-.9,6.91,6.91,0,0,1-3.88-3.12,12.52,12.52,0,0,1-1.29-6.25A17.47,17.47,0,0,1,166,36a5.76,5.76,0,0,1,3.29-3.29,17.82,17.82,0,0,1,6.59-1l2.19,0,3.43.07,3.92.07c1.31,0,2.53.06,3.64.1V29.76a24.75,24.75,0,0,0-.38-4.89,4.29,4.29,0,0,0-1.56-2.63,6.83,6.83,0,0,0-3.3-1.11,51.66,51.66,0,0,0-5.58-.24c-1,0-2.22,0-3.61.1s-2.74.16-4.05.28-2.37.24-3.16.38V17.07a59,59,0,0,1,5.93-.73c2.2-.16,4.47-.24,6.83-.24a38,38,0,0,1,6.35.45A12.63,12.63,0,0,1,190.75,18a6.52,6.52,0,0,1,2.46,2.57,12,12,0,0,1,1.14,3.88,39.68,39.68,0,0,1,.32,5.34V52H189.6l-.21-5H189a7.87,7.87,0,0,1-3.16,3.64,11.92,11.92,0,0,1-4.47,1.56A33.14,33.14,0,0,1,176.7,52.58Zm2.08-4.65a27.5,27.5,0,0,0,3.75-.24,9.09,9.09,0,0,0,3.05-.94,5,5,0,0,0,2.08-2.08,11.07,11.07,0,0,0,1.08-3.15,23.1,23.1,0,0,0,.31-4v-1.8H177.26a16.36,16.36,0,0,0-4.16.41,2.85,2.85,0,0,0-2,1.74,11.51,11.51,0,0,0-.52,3.95,9.29,9.29,0,0,0,.63,3.88,3.35,3.35,0,0,0,2.39,1.77A22.32,22.32,0,0,0,178.78,47.93Z"/><path class="cls-1" d="M206.66,52V.5h5.69V21.3h.34a8.36,8.36,0,0,1,2-2.63,9.08,9.08,0,0,1,3.61-1.84,21.52,21.52,0,0,1,5.83-.66,20.34,20.34,0,0,1,6.27.8,7.46,7.46,0,0,1,3.68,2.46,9.34,9.34,0,0,1,1.7,4.27,40.84,40.84,0,0,1,.41,6.2V52h-5.61V31.84a40.66,40.66,0,0,0-.32-5.72,6.41,6.41,0,0,0-1.21-3.19,4.46,4.46,0,0,0-2.64-1.42,24.21,24.21,0,0,0-4.57-.35,13.31,13.31,0,0,0-5.34.87,5.82,5.82,0,0,0-2.85,2.5,9.92,9.92,0,0,0-1.11,3.95c-.13,1.55-.2,3.32-.2,5.31V52Z"/><path class="cls-2" d="M186.71,70.5V68h2.39V70.5Z"/><path class="cls-2" d="M197.56,70.7a9.44,9.44,0,0,1-2.4-.25,3.58,3.58,0,0,1-1.51-.76,3,3,0,0,1-.85-1.28,7.67,7.67,0,0,1-.36-1.86c-.06-.72-.09-1.55-.09-2.47s0-1.79.11-2.51a7.24,7.24,0,0,1,.43-1.88,3.21,3.21,0,0,1,.88-1.27,3.75,3.75,0,0,1,1.47-.72,9.47,9.47,0,0,1,2.24-.23c.59,0,1.21,0,1.85.08a11.73,11.73,0,0,1,1.6.24v1.66c-.39-.06-.86-.12-1.42-.17s-1.07-.08-1.52-.08a7.4,7.4,0,0,0-1.9.2,1.89,1.89,0,0,0-1.08.73,3.38,3.38,0,0,0-.5,1.49,20.29,20.29,0,0,0-.12,2.46,21.33,21.33,0,0,0,.12,2.51,3.17,3.17,0,0,0,.52,1.48,2,2,0,0,0,1.11.7A7.52,7.52,0,0,0,198,69c.47,0,1,0,1.53-.07s1.05-.11,1.49-.18v1.66c-.42.09-1,.16-1.61.23A17.89,17.89,0,0,1,197.56,70.7Z"/><path class="cls-2" d="M209.54,70.7a14.7,14.7,0,0,1-2.63-.19,3.93,3.93,0,0,1-1.65-.62,2.5,2.5,0,0,1-.9-1.18,6.69,6.69,0,0,1-.36-1.9c-.05-.76-.08-1.67-.08-2.73s0-2,.08-2.73a6.76,6.76,0,0,1,.36-1.9,2.55,2.55,0,0,1,.9-1.18,4.22,4.22,0,0,1,1.65-.62,19.38,19.38,0,0,1,5.27,0,4.48,4.48,0,0,1,1.65.62,2.48,2.48,0,0,1,.9,1.18,6.73,6.73,0,0,1,.37,1.9c.05.77.07,1.67.07,2.73s0,2-.07,2.73a6.66,6.66,0,0,1-.37,1.9,2.44,2.44,0,0,1-.9,1.18,4.16,4.16,0,0,1-1.65.62A14.75,14.75,0,0,1,209.54,70.7Zm0-1.74a9.9,9.9,0,0,0,2.08-.17,1.64,1.64,0,0,0,1-.68,3.21,3.21,0,0,0,.37-1.47c.05-.65.07-1.5.07-2.56s0-1.91-.07-2.55a3.14,3.14,0,0,0-.37-1.47,1.6,1.6,0,0,0-1-.68,9.16,9.16,0,0,0-2.08-.18,9.28,9.28,0,0,0-2.08.18,1.53,1.53,0,0,0-1,.68,3.26,3.26,0,0,0-.38,1.47c0,.64-.08,1.49-.08,2.55s0,1.91.08,2.56a3.33,3.33,0,0,0,.38,1.47,1.57,1.57,0,0,0,1,.68A10,10,0,0,0,209.54,69Z"/><path class="cls-2" d="M219,70.5V57.67h1.86l.08,1.83h.15a2.82,2.82,0,0,1,.69-1,3.21,3.21,0,0,1,1.23-.72,6.09,6.09,0,0,1,2-.26,5.09,5.09,0,0,1,2.54.49,2.61,2.61,0,0,1,1.16,1.54h.15a3.06,3.06,0,0,1,.73-1,3.28,3.28,0,0,1,1.28-.72,6.36,6.36,0,0,1,2-.26,5,5,0,0,1,2.59.52,2.56,2.56,0,0,1,1.13,1.64,11.7,11.7,0,0,1,.28,2.84v8h-2V63.18a16.21,16.21,0,0,0-.1-2.08,2.59,2.59,0,0,0-.38-1.16,1.3,1.3,0,0,0-.83-.51A6.52,6.52,0,0,0,232,59.3a4.21,4.21,0,0,0-1.71.29,1.82,1.82,0,0,0-.92.87,4.2,4.2,0,0,0-.37,1.43c0,.57-.07,1.24-.07,2V70.5h-2V63.18a16.21,16.21,0,0,0-.1-2.08,2.59,2.59,0,0,0-.38-1.16,1.3,1.3,0,0,0-.83-.51,6.52,6.52,0,0,0-1.48-.13,3.86,3.86,0,0,0-1.71.32,1.88,1.88,0,0,0-.91.89,4.22,4.22,0,0,0-.35,1.43c-.05.57-.08,1.22-.08,1.94V70.5Z"/></g></g></svg>