<svg xmlns="http://www.w3.org/2000/svg" viewBox="0 0 362.51 167.03"><defs><style>.cls-1{opacity:0;}.cls-2{fill:#f8be77;}.cls-3{fill:#7fd2ea;}.cls-4{fill:#f9a972;}</style></defs><title>syirkah-logo-s-name_1</title><g id="Layer_2" data-name="Layer 2"><g id="Layer_1-2" data-name="Layer 1"><g class="cls-1"><path class="cls-2" d="M3.36,155.28c.91-3.16,2.37-6.83,4.06-11.09,1.78-4.45,3.78-9.49,5.39-14.62l1.27-4.08,4.18-.92C51,117.4,80.65,110.23,90.6,107.81c1.19-2.8,3-7,4.56-11-1.79-1.39-3.5-2.69-5.71-4.33L85.2,89.37l1.64-5c.29-.91.59-2,.88-3.11l-2.3-2.28c-.88-.89-1.78-1.78-2.66-2.64-3,0-5.8,0-8.8.1-2.78,0-5.57.08-8.47.09l-9.66,0,2.52-9.32c.31-1.18.7-2.33,1.07-3.43s.62-1.86.83-2.64l1.19-4.42,4.49-.89c7.8-1.55,15.57-3,22.43-4.34l8.17-1.56,3.31-.64,2.65,2.09c7,5.55,15.72,12,24.11,18.27,3.39,2.53,6.7,5,9.81,7.34l4.19,3.15-1.6,5c-3.67,11.42-17.14,49.07-17.72,50.67L120,139.48l-3.79,1c-.48.12-48.34,12.4-104.22,24.07L0,167Z"/><path class="cls-2" d="M54.85,115.66c-7-5.55-15.71-12-24.09-18.26-3.4-2.53-6.72-5-9.83-7.35L16.74,86.9l1.6-5C22,70.48,35.49,32.83,36.06,31.23l1.31-3.68,3.79-1c.48-.12,48.34-12.4,104.22-24.07l12-2.5L154,11.75c-.91,3.16-2.37,6.83-4.06,11.09-1.78,4.45-3.78,9.49-5.39,14.62l-1.27,4.08-4.18.92c-32.7,7.17-62.39,14.34-72.34,16.76-1.19,2.8-3,7-4.56,11,1.79,1.39,3.51,2.69,5.71,4.33l4.25,3.16-1.63,5c-.3.91-.6,2-.88,3.12.74.73,1.51,1.49,2.29,2.28s1.78,1.77,2.66,2.63c3,0,5.81,0,8.8-.1,2.78,0,5.57-.08,8.47-.09l9.66,0L99,99.83c-.32,1.18-.71,2.33-1.08,3.43s-.62,1.86-.83,2.64l-1.19,4.42-4.49.89c-7.81,1.55-15.6,3-22.47,4.35l-8.12,1.55-3.32.64Z"/></g><path class="cls-3" d="M25.36,84.16C29,72.72,43,33.71,43,33.71s47.53-12.22,103.89-24c-1.72,6-6.22,15.4-9.39,25.54C96.93,44.15,61.44,52.93,61.44,52.93S56.05,65.39,53.3,72.57c4,3.15,6.34,5,10.19,7.85-.73,2.25-1.39,5-2,7.85,2.93,2.54,6.77,6.72,10.18,9.82,7,0,13.31-.15,20.24-.18-.53,2-1.38,4.1-1.91,6.07-11.16,2.22-22.47,4.34-30.55,5.89C49.42,102,36.12,92.25,25.36,84.16Z"/><path class="cls-3" d="M132,82.87c-3.68,11.44-17.64,50.45-17.64,50.45s-47.52,12.22-103.89,24c1.72-6,6.23-15.4,9.39-25.54C60.41,122.88,95.9,114.1,95.9,114.1s5.39-12.46,8.14-19.64c-4-3.15-6.34-5-10.19-7.85.73-2.25,1.39-5,2-7.85C93,76.22,89.11,72,85.7,68.94c-7,0-13.31.15-20.24.18.53-2,1.38-4.1,1.91-6.07,11.16-2.22,22.47-4.34,30.55-5.89C107.92,65,121.22,74.78,132,82.87Z"/><ellipse class="cls-4" cx="78.73" cy="83.5" rx="10.35" ry="9.91" transform="translate(-10.46 11.28) rotate(-7.69)"/><path class="cls-3" d="M158.64,139.24q-2.31,0-4.8-.12l-4.77-.24c-1.5-.08-2.84-.2-4-.35v-5.16c1.74,0,3.34.12,4.8.2s2.8.13,4,.15,2.37,0,3.38,0a29,29,0,0,0,7.26-.71,7.21,7.21,0,0,0,3.93-2.34,8.9,8.9,0,0,0,1.63-4.33,52.92,52.92,0,0,0,.35-6.58v-2.39H170a8,8,0,0,1-2.15,2.94,10.66,10.66,0,0,1-4.12,2.14,24.15,24.15,0,0,1-6.83.8,23.5,23.5,0,0,1-7.18-.91,8.23,8.23,0,0,1-4.17-2.86,11.51,11.51,0,0,1-1.94-4.88,40.38,40.38,0,0,1-.52-7V82.42h6.51v22.93a52.27,52.27,0,0,0,.32,6.59,6.83,6.83,0,0,0,1.39,3.69,5.29,5.29,0,0,0,3,1.63,27.64,27.64,0,0,0,5.16.39,15.61,15.61,0,0,0,6.19-1,6.4,6.4,0,0,0,3.21-2.9,12.59,12.59,0,0,0,1.27-4.56,56.73,56.73,0,0,0,.28-6V82.42h6.43v35.47a71,71,0,0,1-.59,9.88,14.39,14.39,0,0,1-2.46,6.59,10.82,10.82,0,0,1-5.52,3.69A32.18,32.18,0,0,1,158.64,139.24Z"/><path class="cls-3" d="M190.46,71V63.92h6.9V71Zm.16,51.9V82.42h6.51v40.47Z"/><path class="cls-3" d="M210.78,122.89V82.42h5.79l.32,7.77h.47A11.83,11.83,0,0,1,220.3,85a10,10,0,0,1,4.61-2.5,24.44,24.44,0,0,1,6-.68v6.35q-5.48,0-8.42,1.75a9.06,9.06,0,0,0-4,5.39,32.28,32.28,0,0,0-1.11,9.21v18.41Z"/><path class="cls-3" d="M239.9,122.89v-59h6.51V99.64h5.08l14.29-17.22h7.3L256.65,102l16.66,20.87h-7.53l-14.29-17.7h-5.08v17.7Z"/><path class="cls-3" d="M293.39,123.53a22.86,22.86,0,0,1-7.42-1,7.88,7.88,0,0,1-4.44-3.57,14.34,14.34,0,0,1-1.47-7.14,20,20,0,0,1,1.07-7.26,6.63,6.63,0,0,1,3.77-3.77,20.43,20.43,0,0,1,7.54-1.11c.53,0,1.36,0,2.5,0l3.93.08,4.48.08q2.26,0,4.17.12V97.41a27.89,27.89,0,0,0-.44-5.59,4.85,4.85,0,0,0-1.78-3,7.8,7.8,0,0,0-3.77-1.26,57.39,57.39,0,0,0-6.39-.28c-1.17,0-2.54,0-4.13.12s-3.13.18-4.64.31-2.71.28-3.61.44V82.89a62.25,62.25,0,0,1,6.78-.83c2.52-.19,5.12-.28,7.82-.28a42.61,42.61,0,0,1,7.26.52,14.21,14.21,0,0,1,4.85,1.62,7.34,7.34,0,0,1,2.81,2.94,13.51,13.51,0,0,1,1.31,4.44,45.56,45.56,0,0,1,.36,6.11v25.48h-5.8l-.23-5.71h-.48a9,9,0,0,1-3.61,4.16,13.6,13.6,0,0,1-5.12,1.79A38.28,38.28,0,0,1,293.39,123.53Zm2.38-5.32a30.21,30.21,0,0,0,4.29-.28,10.43,10.43,0,0,0,3.49-1.07,5.69,5.69,0,0,0,2.38-2.38,12.83,12.83,0,0,0,1.23-3.61,25.44,25.44,0,0,0,.36-4.57v-2.06H294a18.09,18.09,0,0,0-4.76.48,3.25,3.25,0,0,0-2.27,2,13.2,13.2,0,0,0-.59,4.52,10.92,10.92,0,0,0,.71,4.45,3.87,3.87,0,0,0,2.74,2A25.15,25.15,0,0,0,295.77,118.21Z"/><path class="cls-3" d="M327.68,122.89v-59h6.5V87.73h.4a9.64,9.64,0,0,1,2.3-3A10.55,10.55,0,0,1,341,82.61a24.77,24.77,0,0,1,6.67-.75,23.54,23.54,0,0,1,7.18.91,8.64,8.64,0,0,1,4.21,2.82A10.74,10.74,0,0,1,361,90.47a45.47,45.47,0,0,1,.47,7.1v25.32h-6.42V99.8a46.74,46.74,0,0,0-.36-6.55,7.29,7.29,0,0,0-1.39-3.65,5.11,5.11,0,0,0-3-1.63,28.16,28.16,0,0,0-5.24-.4,15.29,15.29,0,0,0-6.11,1,6.66,6.66,0,0,0-3.26,2.85A11.38,11.38,0,0,0,334.42,96q-.24,2.65-.24,6.07v20.87Z"/><path class="cls-3" d="M284.13,149.36V145.5h3.74v3.86Z"/><path class="cls-3" d="M301.1,149.68a14.5,14.5,0,0,1-3.76-.4A5.62,5.62,0,0,1,295,148.1a4.71,4.71,0,0,1-1.32-2,12.29,12.29,0,0,1-.57-2.91c-.09-1.13-.13-2.41-.13-3.86a37.93,37.93,0,0,1,.17-3.93,11.18,11.18,0,0,1,.67-2.94,5,5,0,0,1,1.38-2,6,6,0,0,1,2.3-1.12A14,14,0,0,1,301,129c.92,0,1.88.05,2.89.14a17.52,17.52,0,0,1,2.5.37v2.6c-.6-.1-1.35-.2-2.22-.28s-1.68-.11-2.39-.11a11.39,11.39,0,0,0-3,.31,2.92,2.92,0,0,0-1.69,1.14,5.31,5.31,0,0,0-.77,2.32,31.19,31.19,0,0,0-.19,3.86,32,32,0,0,0,.19,3.92,4.79,4.79,0,0,0,.81,2.32,3,3,0,0,0,1.73,1.1,11.9,11.9,0,0,0,3,.3q1.11,0,2.4-.12c.87-.08,1.65-.17,2.33-.27v2.59c-.66.14-1.5.25-2.52.36S302,149.68,301.1,149.68Z"/><path class="cls-3" d="M319.83,149.68a23.38,23.38,0,0,1-4.11-.3,6.42,6.42,0,0,1-2.58-1,4,4,0,0,1-1.4-1.85,10.44,10.44,0,0,1-.57-3c-.07-1.19-.12-2.61-.12-4.27s.05-3.07.12-4.27a10.44,10.44,0,0,1,.57-3,4,4,0,0,1,1.4-1.85,6.42,6.42,0,0,1,2.58-1,29.48,29.48,0,0,1,8.25,0,6.66,6.66,0,0,1,2.58,1,3.87,3.87,0,0,1,1.41,1.85,10.1,10.1,0,0,1,.57,3c.08,1.2.12,2.62.12,4.27s0,3.08-.12,4.27a10.11,10.11,0,0,1-.57,3,3.92,3.92,0,0,1-1.41,1.85,6.66,6.66,0,0,1-2.58,1A23.43,23.43,0,0,1,319.83,149.68Zm0-2.72a14.35,14.35,0,0,0,3.27-.28,2.5,2.5,0,0,0,1.64-1.06,5.15,5.15,0,0,0,.59-2.3c.06-1,.09-2.34.09-4s0-3-.09-4a5.23,5.23,0,0,0-.59-2.31A2.57,2.57,0,0,0,323.1,132a19.76,19.76,0,0,0-6.51,0A2.5,2.5,0,0,0,315,133a5.52,5.52,0,0,0-.59,2.31q-.12,1.51-.12,4c0,1.66,0,3,.12,4a5.43,5.43,0,0,0,.59,2.3,2.43,2.43,0,0,0,1.64,1.06A14.29,14.29,0,0,0,319.83,147Z"/><path class="cls-3" d="M334.6,149.36V129.28h2.91l.12,2.88h.23A4.57,4.57,0,0,1,339,130.5a5.15,5.15,0,0,1,1.93-1.12A9.83,9.83,0,0,1,344,129a8,8,0,0,1,4,.77,4.05,4.05,0,0,1,1.81,2.42H350a4.83,4.83,0,0,1,1.14-1.66,5.36,5.36,0,0,1,2-1.12,10.28,10.28,0,0,1,3.11-.41,7.75,7.75,0,0,1,4.05.83,4,4,0,0,1,1.78,2.55,19.38,19.38,0,0,1,.43,4.45v12.56h-3.19V137.91a25.19,25.19,0,0,0-.16-3.25,4,4,0,0,0-.59-1.81,2.07,2.07,0,0,0-1.3-.81,11,11,0,0,0-2.32-.2,6.39,6.39,0,0,0-2.68.46,2.9,2.9,0,0,0-1.43,1.35,6.18,6.18,0,0,0-.58,2.25c-.07.89-.11,1.93-.11,3.11v10.35H347V137.91a25.19,25.19,0,0,0-.16-3.25,4.08,4.08,0,0,0-.59-1.81,2.07,2.07,0,0,0-1.3-.81,11,11,0,0,0-2.32-.2,6,6,0,0,0-2.68.5,3,3,0,0,0-1.42,1.39,6.57,6.57,0,0,0-.55,2.25q-.12,1.34-.12,3v10.35Z"/></g></g></svg>