<svg xmlns="http://www.w3.org/2000/svg" viewBox="0 0 512.53 512.5"><defs><style>.cls-1{fill:#e6e6e6;}.cls-2{fill:#5feaff;stroke:#5feaff;stroke-miterlimit:10;}</style></defs><title>syirkah-logo-large</title><g id="Layer_2" data-name="Layer 2"><g id="Layer_1-2" data-name="Layer 1"><path class="cls-1" d="M90.62,262.38C5.61,82.48,354.68,3.09,512.53,27.78c-3.89,51.65-8.45,77.67-51.72,119.41C12.75,84.09,203.37,242.14,222.92,264.24c13.71,11.82-16.4,15-4.47,26.61,16.42,15.94,96.69,37.18,85.65,57C253.56,376.06,103.49,299,90.62,262.38Z"/><path class="cls-1" d="M433.86,273.5c85,179.9-264.07,259.29-421.92,234.6,3.9-51.65,8.45-77.67,51.73-119.41,448.06,63.1,257.43-94.95,237.89-117C287.84,259.82,318,256.59,306,245c-16.43-15.94-96.7-37.18-85.65-57C270.91,159.82,421,236.87,433.86,273.5Z"/><path class="cls-2" d="M79.21,239.5C-5.8,59.6,343.27-19.79,501.12,4.9c-3.89,51.65-8.45,77.67-51.72,119.41C1.34,61.21,192,219.26,211.51,241.36c13.71,11.82-16.39,15.05-4.47,26.61,16.42,15.94,96.69,37.18,85.65,57C242.16,353.18,92.08,276.13,79.21,239.5Z"/><path class="cls-2" d="M422.45,250.62c85,179.9-264.07,259.29-421.92,234.6C4.43,433.57,9,407.55,52.26,365.81c448.06,63.1,257.44-94.95,237.89-117-13.72-11.82,16.39-15,4.47-26.61-16.42-15.94-96.7-37.18-85.65-57C259.5,136.94,409.57,214,422.45,250.62Z"/></g></g></svg>