<svg width="32" height="32" viewBox="0 0 32 32" fill="none" xmlns="http://www.w3.org/2000/svg">
<path fill-rule="evenodd" clip-rule="evenodd" d="M13.8717 29.9743L14.2384 29.3547C14.8262 28.3616 15.1201 27.8651 15.5882 27.5882C16.0564 27.3113 16.667 27.2917 17.8883 27.2527C19.0335 27.2161 19.8032 27.1161 20.4613 26.8435C21.8468 26.2696 22.9476 25.1688 23.5215 23.7833C23.952 22.7441 23.952 21.4267 23.952 18.792V17.6611C23.952 13.9591 23.952 12.1081 23.1187 10.7483C22.6525 9.98742 22.0127 9.34771 21.2519 8.88146C19.8921 8.04819 18.0411 8.04819 14.3391 8.04819H10.9463C7.24435 8.04819 5.39335 8.04819 4.03358 8.88146C3.27272 9.34771 2.63302 9.98742 2.16676 10.7483C1.3335 12.1081 1.3335 13.9591 1.3335 17.6611V18.792C1.3335 21.4267 1.3335 22.7441 1.76393 23.7833C2.33784 25.1688 3.43865 26.2696 4.82419 26.8435C5.48227 27.1161 6.25193 27.2161 7.39709 27.2527C8.6184 27.2917 9.22906 27.3113 9.69721 27.5882C10.1654 27.8651 10.4592 28.3616 11.047 29.3547L11.4138 29.9743C11.9602 30.8975 13.3252 30.8975 13.8717 29.9743ZM17.5905 19.3574C18.3713 19.3574 19.0042 18.7245 19.0042 17.9438C19.0042 17.163 18.3713 16.5301 17.5905 16.5301C16.8098 16.5301 16.1769 17.163 16.1769 17.9438C16.1769 18.7245 16.8098 19.3574 17.5905 19.3574ZM14.0564 17.9438C14.0564 18.7245 13.4235 19.3574 12.6427 19.3574C11.862 19.3574 11.2291 18.7245 11.2291 17.9438C11.2291 17.163 11.862 16.5301 12.6427 16.5301C13.4235 16.5301 14.0564 17.163 14.0564 17.9438ZM7.69494 19.3574C8.47568 19.3574 9.1086 18.7245 9.1086 17.9438C9.1086 17.163 8.47568 16.5301 7.69494 16.5301C6.9142 16.5301 6.28129 17.163 6.28129 17.9438C6.28129 18.7245 6.9142 19.3574 7.69494 19.3574Z" fill="url(#paint0_linear_309_2562)"/>
<path opacity="0.5" d="M20.6478 1.33334C22.337 1.33333 23.6803 1.33332 24.7576 1.43575C25.8622 1.54078 26.7961 1.76093 27.6281 2.27077C28.4841 2.79531 29.2037 3.51499 29.7283 4.37096C30.2381 5.20293 30.4582 6.13688 30.5633 7.2415C30.6657 8.31877 30.6657 9.66211 30.6657 11.3512V12.5049C30.6657 13.7071 30.6657 14.6633 30.6128 15.4387C30.5587 16.232 30.4456 16.9131 30.1814 17.551C29.5358 19.1097 28.2974 20.3481 26.7387 20.9938C26.6997 21.0099 26.6605 21.0255 26.6211 21.0406C26.433 21.1125 26.2717 21.1741 26.1303 21.22H23.9301C23.9516 20.5546 23.9516 19.7622 23.9516 18.7907V17.6598C23.9516 13.9578 23.9516 12.1068 23.1184 10.747C22.6521 9.98612 22.0124 9.34641 21.2516 8.88015C19.8918 8.04689 18.0408 8.04689 14.3388 8.04689H10.946C9.63215 8.04689 8.55142 8.04689 7.64307 8.08414V5.88361C7.68668 5.73247 7.74643 5.55923 7.81657 5.35588C7.93586 5.01002 8.08663 4.68293 8.27781 4.37096C8.80234 3.51499 9.52202 2.79531 10.378 2.27077C11.21 1.76093 12.1439 1.54078 13.2485 1.43575C14.3258 1.33332 15.6691 1.33333 17.3582 1.33334H20.6478Z" fill="#FF8800"/>
<defs>
<linearGradient id="paint0_linear_309_2562" x1="12.6427" y1="30.6667" x2="12.6427" y2="8.04819" gradientUnits="userSpaceOnUse">
<stop stop-color="#F87446"/>
<stop offset="1" stop-color="#FF8800"/>
</linearGradient>
</defs>
</svg>
